<?xml version="1.0" standalone="no"?>
<!DOCTYPE svg PUBLIC "-//W3C//DTD SVG 20010904//EN"
 "http://www.w3.org/TR/2001/REC-SVG-20010904/DTD/svg10.dtd">
<svg version="1.0" xmlns="http://www.w3.org/2000/svg"
 width="761.000000pt" height="761.000000pt" viewBox="0 0 761.000000 761.000000"
 preserveAspectRatio="xMidYMid meet">
<metadata>
Created by potrace 1.11, written by Peter Selinger 2001-2013
</metadata>
<g transform="translate(0.000000,761.000000) scale(0.100000,-0.100000)"
fill="#000000" stroke="none">
<path d="M3885 7445 c-32 -30 -59 -55 -61 -55 -1 0 -27 -26 -56 -57 -29 -31
-60 -64 -68 -73 -87 -91 -270 -354 -357 -510 -35 -62 -127 -242 -129 -250 0
-3 -13 -32 -28 -65 -40 -89 -43 -95 -66 -155 -12 -30 -26 -64 -30 -75 -26 -64
-83 -232 -87 -255 -1 -8 -9 -35 -18 -60 -9 -25 -19 -53 -21 -64 -2 -10 -11
-44 -20 -75 -9 -31 -18 -67 -20 -81 -3 -14 -8 -34 -11 -45 -20 -60 -74 -340
-97 -500 -8 -55 -14 -107 -14 -115 0 -8 -2 -28 -5 -45 -40 -219 -52 -838 -23
-1150 3 -27 8 -84 12 -125 9 -105 12 -131 19 -165 7 -35 -1 -75 -16 -75 -21 0
-136 -96 -239 -200 -120 -120 -131 -133 -191 -221 -24 -35 -50 -68 -57 -72 -7
-5 -10 -12 -7 -18 4 -5 1 -9 -4 -9 -6 0 -11 -6 -11 -14 0 -8 -4 -16 -8 -18
-23 -9 -145 -280 -178 -393 -34 -116 -47 -171 -59 -253 -3 -17 -8 -49 -11 -70
-10 -58 -12 -341 -3 -407 14 -108 31 -197 54 -285 3 -14 7 -29 9 -35 1 -5 10
-34 20 -64 l18 -53 57 113 c48 96 89 167 123 214 108 147 256 308 347 377 31
24 59 46 62 51 3 4 30 23 60 42 30 19 60 39 67 45 18 16 257 140 268 140 6 0
27 -41 48 -90 42 -100 38 -98 124 -71 17 5 33 7 34 3 0 -4 1 -41 2 -82 1 -87
-21 -77 183 -79 146 -1 137 4 148 -76 14 -91 35 -212 44 -243 5 -18 10 -33 10
-35 -1 -9 17 -75 39 -142 14 -44 27 -82 27 -85 3 -15 56 -120 61 -120 2 0 9
10 14 23 6 12 14 29 19 37 15 23 62 130 66 149 2 9 11 36 19 60 16 44 40 131
50 181 3 14 12 57 20 96 19 84 24 114 25 132 1 10 36 12 156 9 105 -3 158 0
163 7 4 6 7 42 6 79 l-2 69 27 -5 c14 -3 42 -10 62 -15 l36 -9 31 62 c18 34
32 66 32 71 1 20 29 46 42 38 7 -5 15 -9 18 -9 15 -2 126 -65 197 -112 153
-100 279 -210 382 -333 30 -36 60 -70 65 -75 6 -6 16 -17 21 -26 6 -9 32 -49
59 -90 53 -80 127 -218 167 -313 l26 -60 30 85 c105 292 134 642 77 934 -8 44
-18 93 -21 109 -20 120 -197 527 -235 544 -5 2 -8 10 -8 18 0 8 -4 14 -9 14
-5 0 -12 9 -16 20 -3 11 -15 30 -25 42 -161 192 -202 236 -300 318 -36 30 -67
58 -68 63 -2 4 -8 5 -13 1 -8 -5 -14 17 -10 39 1 4 4 27 6 50 3 23 7 49 10 57
2 8 7 40 10 70 3 30 8 66 10 80 2 14 7 50 10 80 3 30 8 71 11 90 2 19 6 69 9
110 3 41 8 116 11 165 7 109 7 525 0 650 -7 120 -17 243 -21 266 -2 10 -7 49
-10 86 -4 37 -9 75 -10 85 -2 9 -6 38 -10 65 -4 26 -9 59 -11 73 -2 14 -7 41
-10 60 -4 27 -42 217 -69 342 -8 39 -57 216 -72 258 -8 25 -17 56 -19 69 -3
13 -12 37 -20 52 -8 16 -14 32 -14 36 0 54 -203 516 -291 662 -22 34 -39 65
-39 68 0 9 -156 237 -178 261 -7 8 -25 30 -40 50 -47 63 -233 262 -244 262 -3
0 -31 -25 -63 -55z"/>
<path d="M3406 1913 c-3 -7 3 -17 12 -22 9 -6 12 -11 6 -11 -15 0 -36 25 -27
33 3 4 0 7 -8 7 -33 -1 -88 -68 -90 -111 -1 -13 2 -55 6 -94 5 -38 8 -82 9
-97 1 -16 3 -28 6 -28 3 0 6 -23 8 -52 2 -28 8 -60 14 -71 7 -14 7 -17 -1 -13
-6 4 -11 4 -11 -1 0 -13 14 -30 30 -36 12 -4 12 -6 -2 -6 -10 -1 -15 -8 -13
-18 1 -10 9 -17 18 -17 9 1 18 -4 21 -11 3 -9 -2 -11 -15 -8 -16 5 -19 1 -17
-18 2 -13 7 -30 12 -38 7 -10 5 -12 -5 -6 -11 6 -11 5 -2 -5 6 -7 9 -19 6 -28
-4 -10 -2 -13 5 -8 7 4 12 2 12 -3 0 -6 -4 -11 -9 -11 -4 0 -6 -11 -3 -25 2
-14 9 -25 15 -25 8 0 8 -3 0 -11 -14 -14 -4 -57 16 -62 14 -4 14 -5 -1 -6 -10
0 -16 -7 -13 -13 5 -17 17 -97 18 -125 1 -13 4 -23 8 -23 12 0 16 59 5 71 -8
9 -8 10 1 5 7 -4 14 5 18 22 7 34 4 54 -10 64 -6 4 -2 8 8 8 9 0 17 5 17 11 0
5 -6 7 -12 3 -8 -4 -7 1 2 12 9 10 15 31 14 47 0 15 3 27 7 27 5 0 8 3 7 8 -1
4 2 30 7 57 10 57 12 76 19 127 2 21 7 47 11 58 4 12 1 28 -6 36 -10 12 -9 13
3 9 11 -5 15 0 14 17 -1 13 0 28 3 33 3 6 7 21 7 35 1 14 3 25 4 25 3 0 10 40
15 85 2 25 6 59 8 75 6 43 -8 75 -35 76 -22 1 -22 1 2 9 14 4 19 8 12 9 -7 1
-22 10 -33 20 -25 23 -86 32 -93 14z m-36 -33 c-6 -11 -16 -20 -23 -20 -7 0
-6 4 3 10 8 5 11 10 5 10 -5 0 -3 5 5 10 21 14 22 13 10 -10z m83 -3 c3 -8 -1
-14 -8 -14 -7 0 -11 6 -8 14 3 7 6 13 8 13 2 0 5 -6 8 -13z m-41 -14 c-6 -2
-10 -9 -6 -14 3 -5 0 -9 -5 -9 -12 0 -14 13 -4 23 3 4 11 7 17 6 6 0 5 -3 -2
-6z m76 -15 c-2 -6 -10 -13 -16 -14 -7 -1 -8 0 -2 3 5 2 8 9 4 14 -3 5 0 9 6
9 7 0 10 -5 8 -12z m-163 -17 c3 -5 2 -12 -3 -15 -5 -3 -9 1 -9 9 0 17 3 19
12 6z m122 3 c-3 -3 -12 -4 -19 -1 -8 3 -5 6 6 6 11 1 17 -2 13 -5z m85 -1
c-6 -2 -10 -9 -6 -14 3 -5 -2 -12 -10 -15 -9 -3 -13 -11 -9 -17 4 -6 1 -7 -7
-2 -10 6 -9 11 5 22 11 7 15 13 11 13 -4 0 -4 5 -1 10 3 6 12 10 18 9 9 0 8
-2 -1 -6z m-122 -43 c0 -5 -4 -10 -10 -10 -5 0 -10 5 -10 10 0 6 5 10 10 10 6
0 10 -4 10 -10z m135 0 c3 -5 1 -10 -4 -10 -6 0 -11 5 -11 10 0 6 2 10 4 10 3
0 8 -4 11 -10z m-85 -15 c-7 -9 -15 -13 -19 -10 -3 3 1 10 9 15 21 14 24 12
10 -5z m-113 -10 c5 -4 2 -5 -6 0 -11 6 -13 4 -8 -8 9 -23 0 -21 -13 2 -7 15
-7 19 5 17 8 -1 18 -6 22 -11z m39 3 c5 -7 3 -8 -6 -3 -10 6 -12 4 -6 -11 5
-14 4 -16 -5 -7 -6 6 -8 16 -5 22 9 14 13 14 22 -1z m119 -6 c-3 -3 -11 0 -18
7 -9 10 -8 11 6 5 10 -3 15 -9 12 -12z m-66 -48 c-2 -1 5 -12 15 -23 17 -18
17 -21 3 -15 -9 3 -18 10 -18 15 -1 5 -2 13 -3 18 0 5 -4 13 -8 17 -5 4 -8 12
-8 18 0 6 6 2 12 -9 7 -11 10 -21 7 -21z m45 22 c-10 -8 -21 -12 -24 -10 -5 6
21 24 34 24 6 0 1 -6 -10 -14z m-119 -5 c3 -5 2 -12 -3 -15 -5 -3 -9 1 -9 9 0
17 3 19 12 6z m45 5 c0 -2 -7 -7 -16 -10 -8 -3 -12 -2 -9 4 6 10 25 14 25 6z
m-75 -24 c-3 -3 -11 0 -18 7 -9 10 -8 11 6 5 10 -3 15 -9 12 -12z m65 -16 c0
-8 -7 -16 -15 -20 -12 -4 -13 -2 -2 14 14 24 17 25 17 6z m110 0 c0 -2 -7 -7
-16 -10 -8 -3 -12 -2 -9 4 6 10 25 14 25 6z m-140 -51 c0 -5 -5 -3 -10 5 -5 8
-10 20 -10 25 0 6 5 3 10 -5 5 -8 10 -19 10 -25z m135 25 c-3 -5 2 -10 11 -10
10 0 15 -3 11 -6 -10 -10 -39 5 -32 16 3 5 8 10 11 10 3 0 2 -4 -1 -10z m-162
-24 c4 -10 1 -13 -8 -9 -8 3 -12 9 -9 14 7 12 11 11 17 -5z m87 4 c0 -5 -4
-10 -10 -10 -5 0 -10 5 -10 10 0 6 5 10 10 10 6 0 10 -4 10 -10z m-53 -42 c-3
-8 -6 -5 -6 6 -1 11 2 17 5 13 3 -3 4 -12 1 -19z m133 2 c0 -5 -4 -10 -10 -10
-5 0 -10 5 -10 10 0 6 5 10 10 10 6 0 10 -4 10 -10z m-60 -4 c0 -2 -6 -9 -14
-15 -11 -9 -16 -9 -22 0 -4 8 -3 9 4 5 7 -4 12 -2 12 3 0 6 5 11 10 11 6 0 10
-2 10 -4z m-72 -27 c-2 -6 -7 -10 -12 -9 -5 1 -13 -4 -18 -12 -8 -10 -9 -10
-5 2 2 8 10 14 16 13 6 -2 11 2 11 7 0 6 3 10 6 10 3 0 4 -5 2 -11z m109 -2
c0 -8 -6 -14 -13 -14 -7 0 -10 6 -7 14 3 7 8 13 12 13 4 0 8 -6 8 -13z m-72
-7 c3 -6 -1 -7 -9 -4 -18 7 -21 14 -7 14 6 0 13 -4 16 -10z m33 -25 c-3 -3 -9
2 -12 12 -6 14 -5 15 5 6 7 -7 10 -15 7 -18z m-41 -17 c-3 -8 -6 -5 -6 6 -1
11 2 17 5 13 3 -3 4 -12 1 -19z m66 9 c3 -8 -1 -14 -8 -14 -7 0 -11 6 -8 14 3
7 6 13 8 13 2 0 5 -6 8 -13z m-86 -19 c-3 -8 -6 -5 -6 6 -1 11 2 17 5 13 3 -3
4 -12 1 -19z m59 -23 c2 -12 -2 -12 -17 -5 -23 13 -25 22 -2 13 12 -5 14 -3 8
8 -5 8 -4 11 0 6 5 -4 10 -14 11 -22z m45 -2 c13 -17 13 -17 -6 -3 -11 8 -22
16 -24 17 -2 2 0 3 6 3 6 0 17 -8 24 -17z m-12 -41 c-1 -15 -2 -15 -6 1 -2 9
-9 14 -15 11 -7 -4 -8 -2 -4 5 10 15 26 4 25 -17z m-59 -2 c-8 -5 -19 -10 -25
-10 -5 0 -3 5 5 10 8 5 20 10 25 10 6 0 3 -5 -5 -10z m-43 -16 c-3 -3 -12 -4
-19 -1 -8 3 -5 6 6 6 11 1 17 -2 13 -5z m68 -3 c3 -5 0 -13 -6 -17 -7 -4 -9
-3 -5 4 3 5 0 13 -6 15 -9 4 -10 6 -1 6 6 1 14 -3 18 -8z m-35 -41 c0 -5 -4
-10 -10 -10 -5 0 -10 5 -10 10 0 6 5 10 10 10 6 0 10 -4 10 -10z m43 -5 c-3
-9 -8 -14 -10 -11 -3 3 -2 9 2 15 9 16 15 13 8 -4z m27 -31 c0 -8 -19 -13 -24
-6 -3 5 1 9 9 9 8 0 15 -2 15 -3z m-76 -29 c3 -8 1 -15 -4 -15 -6 0 -10 7 -10
15 0 8 2 15 4 15 2 0 6 -7 10 -15z m56 5 c8 -5 11 -10 5 -10 -5 0 -17 5 -25
10 -8 5 -10 10 -5 10 6 0 17 -5 25 -10z m-13 -26 c-3 -4 -2 -14 3 -24 6 -12 5
-17 -5 -17 -7 0 -11 6 -8 13 5 13 -21 14 -33 1 -4 -4 -12 -7 -18 -7 -5 0 -1 6
9 14 11 8 23 12 27 10 4 -2 9 0 13 6 3 5 9 10 12 10 4 0 3 -3 0 -6z m-10 -61
c-9 -2 -14 -9 -11 -15 4 -7 2 -8 -5 -4 -15 10 -4 26 17 25 15 -1 15 -2 -1 -6z
m-21 -41 c1 -7 0 -8 -3 -2 -2 5 -9 8 -14 4 -5 -3 -9 0 -9 6 0 15 23 7 26 -8z
m10 -34 c5 -7 3 -8 -6 -3 -10 6 -12 4 -7 -8 4 -11 2 -14 -9 -10 -11 4 -12 9
-3 19 14 17 16 17 25 2z"/>
<path d="M4198 1773 c-10 -2 -18 -9 -18 -14 0 -5 -7 -9 -15 -9 -8 0 -15 -5
-15 -11 0 -6 7 -8 16 -5 9 3 12 2 9 -4 -4 -6 -13 -9 -20 -8 -8 2 -14 -1 -13
-6 0 -5 -6 -12 -13 -17 -13 -8 -19 -58 -8 -64 3 -3 4 -15 2 -29 -3 -13 0 -33
6 -45 8 -13 8 -21 2 -21 -7 0 -7 -8 -1 -24 5 -13 6 -27 3 -30 -4 -3 0 -6 8 -6
11 0 11 -2 -1 -10 -8 -5 -10 -10 -5 -10 6 0 11 -12 11 -27 3 -73 5 -82 22 -86
16 -4 16 -5 0 -6 -21 -1 -24 -17 -5 -24 8 -4 8 -6 0 -6 -13 -1 -5 -42 11 -53
7 -5 6 -8 -4 -8 -9 -1 -5 -6 10 -16 l25 -15 -25 6 c-24 6 -24 5 -6 -9 11 -9
14 -16 8 -16 -7 0 -12 -5 -12 -11 0 -5 5 -7 11 -3 8 5 8 1 0 -13 -6 -11 -7
-23 -4 -27 4 -4 8 -17 9 -29 2 -12 5 -47 9 -77 3 -30 7 -65 7 -78 1 -15 7 -21
16 -17 12 4 12 2 4 -8 -9 -10 -8 -17 1 -27 9 -10 9 -11 0 -6 -12 7 -12 -1 1
-89 4 -29 14 -25 12 4 -1 17 2 31 8 31 6 0 5 5 -1 11 -9 9 -8 18 4 35 10 16
13 35 9 55 -3 16 -2 28 3 25 5 -3 8 8 7 24 -1 17 1 30 4 30 4 0 7 6 8 13 0 6
3 28 7 47 3 19 6 47 7 63 0 15 4 27 9 27 4 0 6 8 4 18 -1 9 1 27 6 38 4 13 3
26 -4 34 -9 9 -9 11 -1 7 19 -11 25 22 6 32 -16 10 -16 10 1 11 10 0 17 8 17
19 0 11 3 27 7 37 5 13 3 15 -8 9 -11 -6 -10 -4 2 11 8 10 15 26 14 34 -1 8 3
26 7 39 7 20 6 22 -5 13 -11 -9 -13 -8 -12 8 1 11 5 23 10 27 4 5 5 2 1 -4 -4
-7 -2 -13 3 -13 6 0 11 6 12 13 0 6 2 22 3 34 1 12 -1 20 -6 17 -4 -3 -8 0 -8
5 0 6 8 11 18 12 9 0 12 3 5 5 -8 4 -9 13 -4 27 12 31 10 40 -8 55 -9 7 -11
12 -6 11 22 -3 25 2 15 21 -6 11 -15 18 -20 15 -6 -4 -7 1 -3 11 5 13 3 16
-10 11 -12 -4 -14 -2 -10 10 4 11 2 14 -5 9 -7 -4 -12 -3 -12 2 0 5 -6 9 -12
10 -7 0 -24 4 -37 8 -16 5 -22 4 -17 -4 3 -6 2 -14 -4 -17 -6 -4 -9 -1 -8 6 3
14 -10 18 -34 12z m23 -38 c5 4 9 1 9 -4 0 -6 -4 -11 -8 -11 -12 0 -32 22 -32
35 0 5 5 2 11 -8 6 -9 14 -15 20 -12z m66 1 c0 -15 -21 -15 -34 -1 -5 4 -2 5
6 0 11 -6 13 -4 8 8 -4 10 -2 14 7 11 7 -3 13 -11 13 -18z m-103 -28 c-5 -8
-1 -9 12 -4 14 5 16 4 7 -5 -13 -13 -37 -3 -28 12 4 5 8 9 11 9 3 0 2 -5 -2
-12z m101 -41 c0 -4 7 -12 15 -17 8 -5 10 -10 4 -10 -6 0 -17 7 -24 15 -7 8
-9 15 -4 15 4 0 3 5 -4 12 -7 7 -12 17 -12 23 1 11 24 -25 25 -38z m51 6 c-6
-6 -36 9 -36 18 0 5 9 4 20 -3 10 -7 18 -14 16 -15z m-191 -22 c1 -12 -3 -17
-12 -14 -9 4 -10 9 -3 18 5 6 8 15 5 18 -3 4 -2 5 2 2 4 -3 7 -14 8 -24z m59
20 c3 -5 0 -14 -8 -20 -10 -9 -15 -8 -19 3 -4 11 -1 13 10 9 11 -4 14 -2 9 5
-4 7 -5 12 -2 12 3 0 7 -4 10 -9z m50 -26 c-4 -8 -11 -12 -16 -9 -6 4 -5 10 3
15 19 12 19 11 13 -6z m-93 -28 c-10 -9 -11 -8 -5 6 3 10 9 15 12 12 3 -3 0
-11 -7 -18z m125 -7 c0 -12 -4 -16 -9 -11 -5 5 -6 14 -3 20 10 15 12 14 12 -9z
m60 -2 c5 -7 3 -8 -6 -3 -10 6 -12 4 -7 -7 4 -12 1 -14 -14 -11 -18 5 -19 6
-2 19 22 16 20 16 29 2z m-176 -17 c0 -6 -4 -12 -8 -15 -5 -3 -9 1 -9 9 0 8 4
15 9 15 4 0 8 -4 8 -9z m96 -3 c5 -7 3 -8 -6 -3 -10 6 -12 4 -7 -8 4 -11 2
-14 -9 -10 -11 4 -12 9 -3 19 14 17 16 17 25 2z m35 -17 c-8 -5 -16 -17 -17
-26 -1 -9 -5 -20 -8 -23 -9 -8 -2 30 7 46 5 6 14 12 20 12 8 0 7 -4 -2 -9z
m-96 -10 c3 -5 0 -13 -6 -17 -8 -5 -9 -3 -4 6 6 10 4 12 -9 7 -10 -4 -15 -3
-11 3 8 13 22 13 30 1z m-35 -36 c0 -5 -5 -3 -10 5 -5 8 -10 20 -10 25 0 6 5
3 10 -5 5 -8 10 -19 10 -25z m155 4 c-3 -12 -7 -24 -11 -28 -4 -3 -4 2 -1 12
4 10 1 17 -6 17 -8 0 -6 4 3 10 20 13 19 13 15 -11z m-134 -61 c-10 -11 -11
-9 -5 6 6 15 4 17 -6 11 -9 -6 -11 -4 -5 4 5 9 10 10 18 2 8 -8 7 -14 -2 -23z
m112 18 c4 -11 1 -13 -10 -9 -12 5 -14 3 -8 -7 5 -9 4 -11 -4 -6 -9 6 -9 11 0
22 14 17 16 17 22 0z m-3 -40 c0 -2 -7 -7 -16 -10 -8 -3 -12 -2 -9 4 6 10 25
14 25 6z m-128 -24 c-3 -10 -1 -13 6 -8 7 4 12 5 12 2 0 -15 -20 -14 -29 2 -7
14 -6 19 4 19 7 0 11 -7 7 -15z m39 -15 c-6 -8 -8 -17 -4 -20 3 -4 1 -7 -5 -7
-15 0 -15 13 0 28 16 16 23 15 9 -1z m67 0 c6 -5 12 -14 12 -20 0 -8 -4 -7 -9
2 -5 8 -17 16 -26 17 -9 1 -20 5 -23 8 -8 9 30 2 46 -7z m52 9 c0 -2 -7 -7
-16 -10 -8 -3 -12 -2 -9 4 6 10 25 14 25 6z m-82 -51 c0 -14 -1 -25 -2 -23 -1
2 -8 12 -16 22 -10 13 -10 17 -2 12 6 -4 12 -2 12 3 0 6 2 11 4 11 2 0 4 -11
4 -25z m59 3 c-3 -8 -6 -5 -6 6 -1 11 2 17 5 13 3 -3 4 -12 1 -19z m-84 -34
c-4 -11 -9 -12 -19 -3 -19 15 -18 20 3 12 12 -5 14 -3 8 7 -5 8 -4 11 3 6 6
-4 9 -13 5 -22z m56 -8 c9 -11 9 -16 0 -22 -8 -5 -9 -3 -4 6 6 10 4 12 -8 7
-11 -4 -14 -2 -10 9 6 17 8 17 22 0z m-35 -22 c3 -8 2 -12 -4 -9 -6 3 -10 10
-10 16 0 14 7 11 14 -7z m-39 -14 c3 -5 1 -10 -4 -10 -6 0 -11 5 -11 10 0 6 2
10 4 10 3 0 8 -4 11 -10z m36 -38 c-7 -2 -18 1 -23 6 -8 8 -4 9 13 5 13 -4 18
-8 10 -11z m52 -16 c4 -10 1 -13 -8 -9 -8 3 -12 9 -9 14 7 12 11 11 17 -5z
m-8 -34 c-3 -3 -11 0 -18 7 -9 10 -8 11 6 5 10 -3 15 -9 12 -12z m-28 -8 c-3
-3 -12 -4 -19 -1 -8 3 -5 6 6 6 11 1 17 -2 13 -5z m-17 -59 c0 -12 -19 -12
-23 0 -4 9 -1 12 9 8 7 -3 14 -7 14 -8z m10 -65 c0 -5 -4 -10 -10 -10 -5 0
-10 5 -10 10 0 6 5 10 10 10 6 0 10 -4 10 -10z m-25 -39 c-3 -6 2 -14 10 -19
14 -7 14 -10 2 -21 -12 -9 -17 -9 -23 0 -4 8 -3 9 4 5 7 -4 12 -3 12 3 0 5 -5
13 -10 16 -10 6 -5 25 6 25 3 0 3 -4 -1 -9z m25 -101 c0 -5 -5 -10 -11 -10 -5
0 -7 5 -4 10 3 6 8 10 11 10 2 0 4 -4 4 -10z"/>
<path d="M3748 1102 c-23 -16 -44 -44 -39 -51 1 -2 -2 -7 -8 -10 -13 -9 -22
-61 -10 -61 6 0 6 -7 0 -19 -6 -10 -8 -21 -5 -24 3 -3 7 -29 8 -57 2 -31 8
-55 17 -61 9 -6 10 -9 2 -9 -7 0 -10 -6 -8 -12 3 -7 6 -33 8 -58 2 -25 8 -43
13 -41 5 1 8 8 6 15 -2 6 0 8 4 3 13 -13 12 -45 -2 -40 -8 3 -10 -11 -7 -54 5
-58 17 -77 41 -68 9 3 10 0 2 -15 -6 -11 -13 -20 -16 -20 -3 0 -3 4 1 9 3 5 1
12 -5 16 -6 4 -10 -4 -10 -19 0 -13 6 -27 13 -29 7 -3 8 -6 1 -6 -14 -1 -6
-53 10 -63 7 -5 7 -8 -3 -8 -8 0 -11 -6 -6 -17 3 -10 9 -36 11 -58 5 -42 12
-93 20 -135 3 -14 5 -35 5 -47 -1 -12 4 -25 11 -29 6 -4 9 -3 6 2 -3 5 -2 32
3 59 4 28 11 68 14 90 12 75 12 80 -4 92 -14 10 -14 11 4 10 13 -1 20 4 19 16
-1 9 1 17 5 17 6 0 14 58 15 117 1 17 5 29 10 25 5 -3 7 2 3 10 -3 9 0 21 6
27 9 9 7 11 -8 8 -11 -1 -27 -7 -35 -11 -8 -5 -12 -6 -8 -1 4 4 0 13 -9 20
-13 9 -13 14 -3 20 9 5 11 4 6 -3 -7 -12 -1 -14 29 -14 27 0 32 2 32 15 0 6 3
22 7 34 6 18 4 22 -7 17 -8 -3 -18 -1 -22 5 -3 7 0 8 9 5 22 -9 41 33 24 54
-9 11 -10 14 0 8 8 -5 12 -1 13 11 0 10 2 26 5 36 11 44 11 53 0 66 -8 11 -8
13 0 8 8 -4 14 5 17 26 2 17 0 34 -5 36 -5 1 -1 9 9 17 16 12 16 15 3 24 -10
6 -11 10 -3 10 19 0 3 30 -16 31 -13 0 -13 1 2 8 17 6 17 8 -2 30 -12 13 -21
27 -21 30 0 4 -13 12 -30 18 -23 8 -30 8 -30 0 0 -8 -3 -8 -8 -2 -11 16 -59
14 -84 -3z m66 -17 c-4 -8 -11 -15 -16 -15 -6 0 -5 6 2 15 7 8 14 15 16 15 2
0 1 -7 -2 -15z m80 -14 c4 -5 -3 -7 -14 -4 -23 6 -26 13 -6 13 8 0 17 -4 20
-9z m-124 -17 c0 -8 -19 -13 -24 -6 -3 5 1 9 9 9 8 0 15 -2 15 -3z m31 -11
c13 -16 12 -17 -3 -4 -17 13 -22 21 -14 21 2 0 10 -8 17 -17z m119 3 c0 -2 -7
-7 -16 -10 -8 -3 -12 -2 -9 4 6 10 25 14 25 6z m-187 -23 c-5 -12 -3 -14 8 -8
8 5 11 4 6 0 -12 -14 -37 -15 -34 -2 2 10 17 26 24 27 1 0 -1 -7 -4 -17z m53
5 c5 -7 3 -8 -6 -3 -10 6 -12 4 -6 -11 5 -14 4 -16 -5 -7 -6 6 -8 16 -5 22 9
14 13 14 22 -1z m79 -9 c-4 -5 -12 -9 -18 -8 -9 0 -8 2 1 6 6 2 9 10 6 15 -4
7 -2 8 5 4 6 -4 9 -12 6 -17z m-48 -10 c-9 -6 -15 -14 -12 -20 4 -5 1 -9 -4
-9 -6 0 -11 4 -11 8 0 12 22 32 35 32 5 0 2 -5 -8 -11z m21 -54 c-3 -3 -9 2
-12 12 -6 14 -5 15 5 6 7 -7 10 -15 7 -18z m32 15 c0 -5 -4 -10 -10 -10 -5 0
-10 5 -10 10 0 6 5 10 10 10 6 0 10 -4 10 -10z m-159 -23 c-10 -9 -11 -8 -5 6
3 10 9 15 12 12 3 -3 0 -11 -7 -18z m114 -13 c9 -1 20 -5 23 -8 8 -9 -30 -2
-45 7 -7 5 -13 14 -13 20 0 8 4 7 9 -2 5 -8 17 -16 26 -17z m81 14 c5 -7 3 -8
-6 -3 -10 6 -12 4 -6 -10 5 -15 4 -16 -9 -5 -13 11 -13 15 -3 21 17 11 16 11
24 -3z m-162 -27 c4 -5 -3 -7 -14 -4 -23 6 -26 13 -6 13 8 0 17 -4 20 -9z m40
-13 c-5 -7 -2 -9 9 -5 11 4 14 2 10 -9 -4 -11 -9 -12 -19 -3 -12 10 -11 29 2
29 3 0 2 -5 -2 -12z m87 -40 c-10 -11 -11 -9 -5 6 6 15 4 17 -6 11 -9 -6 -11
-4 -5 4 5 9 10 10 18 2 8 -8 7 -14 -2 -23z m-140 -6 c-7 -2 -18 1 -23 6 -8 8
-4 9 13 5 13 -4 18 -8 10 -11z m120 -9 c13 -16 12 -17 -3 -4 -10 7 -18 15 -18
17 0 8 8 3 21 -13z m-91 -3 c-8 -5 -19 -10 -25 -10 -5 0 -3 5 5 10 8 5 20 10
25 10 6 0 3 -5 -5 -10z m66 -2 c5 -7 3 -8 -6 -3 -10 6 -12 4 -6 -11 5 -14 4
-16 -5 -7 -6 6 -8 16 -5 22 9 14 13 14 22 -1z m27 -30 c3 -8 -5 -14 -20 -14
-22 -2 -23 -1 -6 12 22 17 20 16 26 2z m-89 -17 c3 -5 -1 -11 -9 -14 -9 -4
-12 -1 -8 9 6 16 10 17 17 5z m126 -10 c0 -5 -8 -15 -17 -22 -16 -12 -17 -12
-6 2 7 9 10 19 6 22 -3 4 -1 7 5 7 7 0 12 -4 12 -9z m-145 -29 c-3 -3 -11 0
-18 7 -9 10 -8 11 6 5 10 -3 15 -9 12 -12z m92 1 c-9 -2 -14 -9 -11 -15 4 -7
2 -8 -5 -4 -15 10 -4 26 17 25 15 -1 15 -2 -1 -6z m-57 -28 c-7 -8 -18 -15
-24 -15 -6 0 -2 7 8 15 25 19 32 19 16 0z m104 -15 c-6 -6 -10 -3 -10 10 0 13
4 16 10 10 7 -7 7 -13 0 -20z m-59 2 c-3 -3 -11 0 -18 7 -9 10 -8 11 6 5 10
-3 15 -9 12 -12z m27 -9 c-6 -2 -9 -10 -6 -15 4 -7 2 -8 -5 -4 -13 9 -5 26 12
25 9 0 8 -2 -1 -6z m-36 -40 c-6 -6 -36 9 -36 18 0 5 9 4 20 -3 10 -7 18 -14
16 -15z m-35 -30 c13 -15 12 -15 -8 -4 -24 12 -29 21 -14 21 5 0 15 -7 22 -17z
m49 13 c0 -2 -7 -7 -16 -10 -8 -3 -12 -2 -9 4 6 10 25 14 25 6z m36 -8 c4 -7
3 -8 -4 -4 -7 4 -12 2 -12 -5 0 -7 -3 -10 -6 -6 -6 5 3 27 11 27 2 0 7 -5 11
-12z m-103 -51 c3 -8 -1 -14 -8 -14 -7 0 -11 6 -8 14 3 7 6 13 8 13 2 0 5 -6
8 -13z m45 -25 c2 -7 -1 -12 -8 -12 -6 0 -9 4 -6 9 4 5 1 12 -4 14 -6 3 -5 4
2 3 6 -1 14 -8 16 -14z m42 -21 c0 -6 -5 -13 -12 -17 -6 -4 -8 -3 -4 4 3 5 0
13 -6 15 -8 3 -6 6 5 6 9 1 17 -3 17 -8z m-40 -41 c0 -5 -4 -10 -10 -10 -5 0
-10 5 -10 10 0 6 5 10 10 10 6 0 10 -4 10 -10z m35 -36 c0 -12 -4 -26 -8 -30
-4 -5 -5 0 -1 10 5 13 4 17 -4 12 -6 -3 -14 -1 -18 5 -5 8 -3 9 6 4 9 -6 12
-4 8 7 -4 8 -1 15 6 15 6 0 12 -10 11 -23z m-74 -27 c-10 -9 -11 -8 -5 6 3 10
9 15 12 12 3 -3 0 -11 -7 -18z m37 -38 c-6 -16 -12 -28 -14 -26 -5 5 13 57 20
57 3 0 0 -14 -6 -31z m-3 -49 c3 -5 1 -10 -4 -10 -6 0 -11 5 -11 10 0 6 2 10
4 10 3 0 8 -4 11 -10z m1 -96 c0 -13 -2 -22 -5 -19 -3 3 -6 17 -7 31 0 13 2
22 5 19 3 -3 6 -17 7 -31z"/>
</g>
</svg>
